<?xml version="1.0" encoding="UTF-8" standalone="no"?>
<svg
   xmlns:dc="http://purl.org/dc/elements/1.1/"
   xmlns:cc="http://creativecommons.org/ns#"
   xmlns:rdf="http://www.w3.org/1999/02/22-rdf-syntax-ns#"
   xmlns:svg="http://www.w3.org/2000/svg"
   xmlns="http://www.w3.org/2000/svg"
   xmlns:sodipodi="http://sodipodi.sourceforge.net/DTD/sodipodi-0.dtd"
   xmlns:inkscape="http://www.inkscape.org/namespaces/inkscape"
   viewBox="0 0 980.47166 1012.2349"
   version="1.1"
   id="svg4530"
   sodipodi:docname="Logo.svg"
   inkscape:version="0.92.2 (5c3e80d, 2017-08-06)">
  <metadata
     id="metadata4536">
    <rdf:RDF>
      <cc:Work
         rdf:about="">
        <dc:format>image/svg+xml</dc:format>
        <dc:type
           rdf:resource="http://purl.org/dc/dcmitype/StillImage" />
        <dc:title />
      </cc:Work>
    </rdf:RDF>
  </metadata>
  <defs
     id="defs4534" />
  <sodipodi:namedview
     pagecolor="#ffffff"
     bordercolor="#666666"
     borderopacity="1"
     objecttolerance="10"
     gridtolerance="10"
     guidetolerance="10"
     inkscape:pageopacity="0"
     inkscape:pageshadow="2"
     inkscape:window-width="1920"
     inkscape:window-height="1017"
     id="namedview4532"
     showgrid="false"
     inkscape:zoom="0.78676421"
     inkscape:cx="746.45191"
     inkscape:cy="590.55342"
     inkscape:window-x="-8"
     inkscape:window-y="-8"
     inkscape:window-maximized="1"
     inkscape:current-layer="svg4530"
     fit-margin-top="1"
     fit-margin-left="1"
     fit-margin-right="1"
     fit-margin-bottom="1"
     units="mm" />
  <path
     id="Selection #1"
     d="m 656.06278,4.6480394 8.99,-1.52 7.14,6.35 13.45,15.9999996 40.03,48.999998 17.65,23 -1.18,12.000003 -4.08,25 c -5.26,-1.62 -7.98,-5.84 -11.39,-10 l -17.2,-21 -49.73,-61.000003 c -5.27,-6.37 -22.63,-26.319998 -25.68,-31.999998 z m 83.61,20.8699996 c 7.17,8.699998 12.29,27.689998 12.39,38.959998 l -2,1 c -4.69,-2.98 -10.19,-10.5 -13.8,-15 l -21.28,-25.999998 c -4.44,-5.35 -10.45,-11.07 -11.92,-17.9999996 9.93,1.79 30.28,11.3499996 36.61,19.0399996 z m -142.61,-7.04 c 2.75,-0.59 7.27,-2.1 9.83,-0.89 2.19,1.04 8.09,8.6 10.04,10.89 l 22.74,27.999998 63.99,78.000003 17.15,21 c 2.58,3.13 8.06,9.45 9.36,13 1.56,4.24 0.25,9.65 -0.53,14 l -4.58,26 c -5.55,-1.79 -9.26,-8.59 -12.92,-13 l -26.21,-32 -35.13,-43 -43.54,-53.000003 -21.28,-26 c -3.78,-4.54 -10.57,-11.999998 -12.92,-16.999998 z m -58,13.589998 c 3.42,-0.77 6.64,-2.129998 9.83,0 2.43,1.66 13.22,15.22 15.77,18.41 l 28.65,35 94.16,115.000003 23.79,29 c 3.95,4.89 8.18,8.26 7.63,15 -0.47,5.67 -4.87,30.3 -6.83,35 l -19.39,-22 -31.01,-38 -99.18,-121.000003 -29.42,-36 -19,-22 v -2 z m -62,14.54 c 2.72,-0.66 8.4,-2.23 10.99,-1.44 3.9,1.19 11.75,11.77 14.62,15.31 l 31.14,38 58.71,72.000003 75.54,92 26.2,32 c 3.45,4.27 10.02,11.04 11.51,16 1.25,4.14 0.06,9.78 -0.63,14 -1.17,7.09 -2.48,18.75 -5.08,25 -6.38,-3.16 -18.56,-19.7 -23.6,-26 l -47.48,-58 -110.38,-135 -45,-55.000003 -18.54,-23 c 6.95,-2.96 14.67,-4.09 22,-5.87 z m -56,13.08 c 2.71,-0.57 7.21,-1.66 9.82,-0.61 2.75,1.12 13.16,14.32 15.63,17.4 l 35.97,44.000003 54.16,66 99.14,121 32.55,40 c 3.13,3.69 13.96,16.02 14.74,20 1.61,8.29 -11.38,13.85 -18.01,14.52 -9.48,0.95 -17.3,-10.98 -22.61,-17.52 l -45.95,-56 -49.76,-61 -84.26,-102.83 -45.88,-56.170003 -18.54,-23 z m 378.57,19.79 c 10.74,14.96 19.63,43.040003 27.28,61.000003 3.65,8.58 11.37,24.37 12.15,33 -6.15,-3.05 -10.67,-10.76 -15.13,-16 l -34.33,-42 c -4.75,-5.85 -14.07,-14.06 -13.36,-22.000003 l 6.82,-31 c 6.49,3.49 12.28,11.02 16.57,17 z m -432.57,-6.82 c 8.2,-0.73 12.76,8.23 17.41,13.82 l 35.87,44.000003 135.18,165 40,49 c 5.21,6.41 16.25,17.83 18.54,25 -11.05,-0.54 -21.78,-6.83 -32,-10.56 -6.48,-2.37 -14.6,-3.76 -19.99,-7.97 -4.68,-3.66 -12.02,-13.52 -16.09,-18.47 l -30.31,-37 -125.93,-154 -28.76,-35 -21.92,-27.000003 z m -60,14 c 8.16,-0.73 11.47,6.18 16,11.82 l 29.59,36.000003 112.87,138 31.13,38 c 4.75,5.72 13.86,15.5 16.41,22 l -1,1 c -12.32,-2.49 -21.51,-7.14 -33,-11.31 -6.96,-2.52 -12.84,-3.1 -19,-7.62 -5.87,-4.31 -12.25,-13.25 -17.08,-19.07 l -30.33,-37 -78.59,-96 -37.61,-46 c -4.82,-5.93 -14.64,-16.560003 -17.39,-23.000003 z m -64,14.940003 10.71,-0.86 13.88,15.74 31.02,38 73.8,90 26.2,32 14.39,19 c -5.73,1.11 -11.63,-1.78 -17,-3.69 l -33,-12.22 c -2.99,-1.62 -5.56,-3.74 -7.96,-6.13 -14.30497,-14.47865 -15.54785,-18.50761 -22.32,-26.96 l -62.31,-76 -34.41,-42 c -4.53,-5.61 -13.19,-14.94 -16,-21 z m -58,13.73 c 3.09,-0.81 6.77,-2.42 9.83,-0.81 2.92,1.53 8.32,9.09 10.62,11.96 l 19.8,24 62.17,76 17.19,21 c 3.74,4.6 6.8,7.14 8.39,13 -12.65,-1.79 -26.22,-7.88 -38,-12.55 -5.82,-2.31 -10.88,-3.04 -16,-6.98 -4.47,-3.45 -11.44,-12.69 -15.41,-17.47 l -28.67,-35 -38.38,-47 -15.54,-19 c 7.16,-4.38 15.99,-5.06 24,-7.15 z m -7,98.16 c -5.07,-2.09 -11.77,-3.92 -15.91,-7.4 l -30.34,-36.61 -16.6,-20 c -2.4,-2.93 -5.04,-6.07 -2.53,-9.83 2.88,-4.33 11.61,-7.73 16.38,-9.91 2.6,-1.19 5.01,-2.43 7.83,-1.04 2.37,1.16 6.76,6.59 8.56,8.78 l 13.87,17 36.82,45 c 6.17,7.48 16.48,18.3 19.92,27 z m 603.28,-71.01 26.18,32 22.28,27 9.42,12 c 5.73,6.59 25.26,29.73 28.89,36 3.84,6.63 9.45,26.51 12.28,35 l 6.69,22 c 1.57,5.1 3.68,10.65 2.98,16 l -29.08,-34 -62.17,-76 -26.2,-32 -10.66,-14 1.23,-12 5.88,-26 c 5.11,4.22 8.12,9 12.28,14 z m -671.96,37 c 3.72,4.48 5.71,4.98 6.68,11 -4.29,-0.81 -18.730002,-7.96 -21.070002,-11.27 -2.22,-3.16 -2.89,-12.74 -2.93,-16.73 7.970002,3.13 12.060002,10.67 17.320002,17 z m -56.320002,18 15.72,19 67.890002,83 250.59,306 47.46,58 18.14,23 c 2.36,5.68 -7.08,15.72 -10.6,20 -1.5,1.81 -3.74,4.69 -6.13,5.27 -3.16,0.76 -5.89,-3.16 -7.65,-5.27 l -16.42,-20 -24.46,-30 -44.34,-54 -248.940002,-304 -46.51,-57 -13.17,-16 c -2.17,-2.65 -5.919998,-6.73 -6.839998,-10 -2.13,-7.59 9.209998,-20.5 15.259998,-23.96 5.41,-0.93 6.8,2.04 10,5.96 z m 65.965342,14.75753 c 6.55,2.47 18.78,5.93 23.96,9.94 4.47,3.45 11.93466,12.73247 16.49466,18.30247 l 46.66,57 129.24,158 96.22,117 38.26,47 17.65,22 c 3.04,6.06 -7.51,16.41 -11.19,20.98 -1.69,2.09 -4.02,5.04 -7.09,3.85 -2.03,-0.79 -5.71,-5.96 -7.3,-7.83 l -18.95,-23 -37.38,-46 -30.54,-37 -74.57,-91 -98.04,-120 -40.19,-49 -57.4,-70 -14.430002,-17.83 c -4,-4.83 0.175337,2.21753 -1.404663,-4.18247 z m 658.23466,12.24247 39.41,48 58.81,72 30.95,39 7.35,23 6.01,23 7.27,23.89 h -2.83 l -13.05,-14.89 -36.12,-44 -56.58,-69 -32.55,-40 -27.12,-33 -11.7,-16 1.6,-14 5.35,-25 z m -555.23466,25.93753 c 6.11,2.24 15.96,4.65 20.91,8.27 6.1,4.45 6.16466,5.78247 11.25466,11.79247 l 39.47,48 45.94,56 112.88,138 52.5,64 13.73,17 c 1.72,2.28 4.07,4.99 4.06,8 -0.02,3.6 -3.03,5.9 -5.29,8.28 l -8.74,10.56 c -4,3.82 -6.07,1.48 -9.1,-1.86 l -12.53,-14.98 -24.51,-30 -32.93,-40 -112.19,-137 -59.69,-73 -52.34,-64 c -5.5,-6.71 -12.38466,-12.48247 -14.42466,-20.01247 9.49,1.47 21.65,7.52 31,10.95 z m -198.16534,-2.93753 13.119998,16 58.95,72 78.550002,96 72.12,88 17.88,23 16.58,19.04 12.42,15.96 13.14,15 38.19,47 52.5,64 15.55,19 c 1.76,2.18 5.67,6.47 6.36,9 0.72,2.68 -0.53,4.83 -1.95,7 -2.17,3.31 -11.18,15.58 -14.24,16.92 -3.63,1.59 -5.89,-1.47 -7.97,-3.94 l -16.26,-19.98 -68.94,-84 -88.8,-109.99 -11.87,-13.01 -27.87,-34 -113.830002,-139 -42.309998,-52 c -3.5,-4.49 -14.92,-17.04 -16.3899999,-21 -2.2,-5.96 1.7699999,-20.53 3.0699999,-27 0.78,-3.87 0.74,-6.99 3.63,-9.83 4.35,-0.45 5.81,2.68 8.37,5.83 z m 297.16534,39.29753 c 6.78,2.41 16.39,4.85 21.99,9.22 4.34,3.39 7.43466,7.44247 11.63466,12.48247 l 36.83,45 68.12,83 40.73,50 40.98,50 c 3.23,3.88 14.81,16.72 15.11,21 0.19,2.77 -1.62,4.92 -3.17,7 -2.48,3.34 -8.68,12.2 -11.62,14.26 -6.48,4.54 -14.33,-8.79 -17.96,-13.26 l -45.95,-56 -57.24,-70 -76.85,-94 -41.82,-51 c -5.32,-6.43 -10.86466,-11.18247 -13.78466,-18.01247 l 1,-1 z m 421.03466,-20.29753 17.54,22 36,44 87.54,107 37.72,46 c 4.72,5.84 14.60999,16.98 17.79999,23 5.12,9.64 7,26.11 8.83,37 1.47,8.7 4.38,17.12 4.57,26 -6.65,-3.3 -12.94,-13.19 -17.87,-19 l -38.51999,-47 -121.03,-148 -30.24,-37 c -3.04,-3.82 -10.69,-11.67 -11.79,-16 -0.77,-3.03 0.82,-7.75 1.32,-11 1.01,-6.69 3.88,-20.89 6.13,-27 z m -318.03466,57.93753 c 6.09,2.22 15.06,4.35 19.91,8.44 l 8.71466,9.62247 32.02,39 72,88 31.75,39 c 5.04,7.76 -4.23,16.22 -8.91,22 -1.97,2.43 -4.65,6.91 -8.38,5.6 -3.28,-1.15 -12.2,-13.29 -14.87,-16.6 l -35.32,-43 -33.62,-41 -63.68,-78 -28.78,-35 c -4.59,-5.68 -4.21466,-3.31247 -6.83466,-10.01247 10.88,0.91 25.28,8.03 36,11.95 z m -408.16534,-0.93753 17.999998,22 62.2,76 76.390002,93 77.03,95 42,51 14.24,17 55.73,68 16.27,20 c 2.22,2.79 6.25,6.89 7.49,10 2.73,6.87 -4.27,11.99 -7.81,17 -1.8,2.56 -4.41,6.67 -7.35,7.92 -3.69,1.57 -6.19,-1.39 -8.33,-3.94 l -16.27,-19.98 -68.39,-84 -113.58,-138 -67.960002,-83 -32.59,-40 -31.95,-39 c -3.759998,-4.52 -15.929998,-18.74 -18.079998,-23 l -5.9699999,-24 c -2.22,-9.17 -5.43,-24.98 -2.87,-34 5.05,2.6 8.2899999,7.65 11.7999999,12 z m 731.59,36 42.61,52 137.61,168 21.30999,26 c 3.4,4.1 10.57,12.47 12.55,17 3.4,7.77 2.54,12.6 3.42,20 l 2.29,17 c 0.86,6.54 4.14,13.41 2.82,20 -6.06,-3 -16.06,-17.14 -20.8,-23 l -41.80999,-51 -96.78,-118 -50.53,-62 c -1.01046,-2.01539 -18.68318,-21.98773 -20.3601,-26.71336 -7.7616,-21.87254 -5.42137,-33.80741 -6.88373,-55.7072 6.43,3.74 9.25383,9.90056 14.55383,16.42056 z m -247.42466,-8.68247 20,7.36 c 6.65,2.94 15.37,4.57 21,8.78 6.08,4.55 10.08466,9.98247 15.45466,16.54247 l 37.66,46 21.17,26 c 2.37,2.87 8.53,9.53 9.03,13 0.73,5.13 -7.7,14.08 -10.78,18 -1.41,1.79 -3.35,4.8 -5.55,5.6 -4.27,1.55 -10.4,-7.67 -12.75,-10.6 l -32.78,-40 -34.34,-42 -27.83,-34 c -5.65,-6.78 -9.19466,-9.89247 -13.28466,-17.01247 5.29,-1.02 8.03,0.71 13,2.33 z m 124.83,46.49 3.86336,2.47785 c 3.6,2.84 3.70611,3.3129 4.43957,5.7258 1.10458,5.64607 0.65341,4.05667 1.53837,10.03555 l 1.03271,7.25233 c 0.58336,5.62888 1.52065,9.73094 0.33065,15.70094 -8.31,-4.46 -12.88,-11.94 -18.75,-19 l -22.91,-28 c -4.75,-5.97 -0.44466,1.39753 -3.37466,-6.01247 7.82,0.7 27.44,7.62 33.83,11.82 z m -570.285342,58.19247 15.88,19 39.070002,48 172.93,212 51.49,62 c 3.64,4.64 16.32,18.43 17.52,23 1.46,5.58 -6.3,12.8 -9.5,17 -1.24,1.62 -3.46,5.05 -5.22,5.92 -2.93,1.45 -5.59,-1.02 -7.51,-2.98 l -14.62,-17.94 -24.23,-29 -36.32,-45 -124.46,-152 -39.200002,-48 -36.85,-45 -15.27,-19 c -2.96,-5.1 -5.72,-20.58 -7.02,-27 l -7.199998,-37 c 6.09,4.74 24.599998,28.57 30.509998,36 z m 901.489992,292 -40.12999,-49 -43.33,-53 -68.12,-83 -48.27,-59 -14.61,-18 -28.79,-35 c -2.95,-3.57 -14.14,-15.85 -14.04,-19.85 2.12723,-3.75577 39.43343,19.05495 43.31082,19.74414 1.63905,1.06648 5.94868,4.08114 10.87544,7.44152 l 43.22374,45.66434 61.57,75 78.38999,96 22.05,27 c 3.41,4.02 14.57,17.17 16.43,21 3.46,7.08 1.37,10.66 1.54,16 0.58,9.03 2.37,21.3 0,30 -7.04,-2.48 -15.29,-15.01 -20.1,-21 z m -250.71999,-269 23.26,28 25.88,32 177.11999,216 30.11,37 c 2.92,3.76 10.63,12.09 11.66,16 1.7,6.41 -5.12,16.06 -8.74,21 -1.64,2.24 -4.12,6.13 -7.42,4.83 -1.85,-0.72 -5.5,-5.18 -6.84,-6.83 l -13.76,-17 -48.20999,-59 -78.88,-96 -45.14,-55 -43.19,-53 -19.55,-24 -23.7,-29 c -3.16,-4.08 -14.31,-15.53 -14.33,-20 -0.01,-2.64 2.35,-5.87 3.8,-8 l 11.65,-16 c 7.14,3.41 20.72,22 26.28,29 z m -57.35,18.91 c 3.29,0.61 10.84,11.09 13.32,14.09 l 40.95,50 169.41,207 47.64,58 8.88,11 c 1.22,1.48 3.50999,3.84 3.52999,5.87 0.03,1.76 -1.34999,2.62 -2.72999,3.33 l -18.93,5.22 c -2.75,0.77 -6.15,1.98 -8.96,0.97 -3.91,-1.4 -11.32,-11.8 -14.29,-15.39 l -34.36,-42 -86.97,-106 -83.34,-102 -37.8,-46 c -2.98,-3.58 -14.16,-16.42 -14.74,-20 -0.49,-2.97 1.28,-5.63 2.82,-8 3.06,-4.71 8.48,-12.65 12.81,-16.09 0.52,0.06 1.15,-0.54 2.76,0 z m -596.930002,39.09 20.39,25 45.150002,55 147.85,182 39.49,47 c 2.61,3.33 11.9,14.12 13.12,17 2.64,6.21 -6.82,15.47 -10.55,19.98 -1.75,2.12 -4.08,5.83 -7.32,4.62 -2.25,-0.84 -5.76,-5.64 -7.38,-7.6 l -13.87,-17 -48.49,-60 -31.93,-38 -80.07,-98 -36.700002,-45 c -3.96,-4.88 -15.1,-17.54 -17.5,-22 -2.41,-4.47 -5.61,-21.15 -6.79,-27 l -7.4,-36 z m 803.000002,330.98 c -2.93,0.89 -6.99,2.28 -9.99,1.24 -3.96,-1.36 -11.45,-11.59 -14.4,-15.22 l -30.22,-37 -145.8,-178 -42.67,-52 c -3.4,-4.08 -14.55,-16.22 -14.64,-21 -0.07,-3.43 10.28,-18.04 13.05,-20.85 2.15,-2.19 4.4,-3.54 7.21,-1.53 l 17.86,21.38 34.35,42 39.33,48 43.34,53 25.46,31 24.69,30 44.04,54 19.79,24 c 3.57,4.46 7.74,8.53 9.6,14 z m -272.08,-279.81 c 2.83,1.06 10.16,11.01 12.51,13.83 l 38.57,47 141.74,173 31.72,39 c 2.33,2.87 10.79,11.05 9.8,14.73 -0.75,2.78 -7.7,4.45 -10.26,5.24 -4.57,1.42 -15.71,5.02 -19.99,3.43 -3.84,-1.43 -10.69,-10.87 -13.59,-14.4 l -28.62,-35 -97.26,-119 -41.88,-51 -30.27,-37 c -2.73,-3.36 -10.81,-12.12 -11.35,-16 -0.41,-3.01 1.68,-5.65 3.25,-8 3.49,-5.18 7.68,-12.34 12.8,-15.83 0.48,-0.05 1.11,-0.65 2.83,0 z m -24.76,52.83 17.29,21 58.94,72 54.86,67 30.33,37 32.59,40 c 2.4,2.81 11.24,11.46 8.75,15.44 -1.61,2.58 -11.78,4.1 -14.92,4.77 -3.43,0.73 -9.92,3.14 -13,2.15 -4.29,-1.37 -9.51,-8.8 -12.42,-12.36 l -26.33,-32 -117.71,-144 -31,-38 c -2.74,-3.37 -12.05,-13.37 -12.75,-17 -0.51,-2.69 1.36,-5.82 2.76,-8 l 12.45,-17 c 5.61,2.01 6.39,4.66 10.16,9 z m -462.910002,36 35.170002,43 59.12,72 32.88,41 21.97,26 26.86,33 c 2.55,3.09 11.13,12.9 12.14,16 1.97,6.04 -6.97,15.56 -10.59,20 -1.23,1.5 -3.21,4.09003 -4.95,4.92003 -4.81,2.27 -12.36,-9.59003 -15.05,-12.92003 l -40.05,-49 -75.36,-92 -29.47,-36 c -4.05,-4.92 -13.940002,-16.26 -16.570002,-21 -3.69,-6.63 -5.86,-20.1 -7.56,-28 l -7.79,-39 c 5.9,4.43 14.17,15.85 19.25,22 z m 431.320002,11 26.97,33 112.21,137 31.68,39 c 2.65,3.18 11.08,10.73 4.42,14.01 -5.4,2.66 -21.12,7.25 -26.81,4.87 -3.88,-1.62 -8.06,-7.58 -10.79,-10.88 l -21.37,-26 -44.27,-54 -66.03,-81 -23.86,-29 c -2.68,-3.21 -9.11,-9.78 -9.22,-14 -0.07,-3.02 2.36,-5.7 4.03,-8 3.4,-4.68 6.29,-10.23 10.79,-13.92 5.47,-1.16 9.07,5.1 12.25,8.92 z m -31.97,48 29.48,36 53.31,65 36.74,45 23.75,29 c 1.87,2.39 7.41,7.97 7.09,10.87 -0.29,2.68 -3.84,3.71 -5.97,4.46 -4.52,1.59 -14.61,5.10003 -19,5.49003 -7.77,0.69 -11.02,-5.44003 -15.39,-10.82003 l -27.81,-34 -79.41,-97 -22.85,-28 c -2.4,-2.95 -7.91,-8.62 -8.94,-12 -1.08,-3.59 0.83,-6.21 2.79,-9 3.36,-4.79 8.17,-12.6 12.69,-15.92 6.05,-1.23 10.17,6.74 13.52,10.92 z m -36.68,41 19.8,24 33.36,41 50.26,61 22.79,28 c 3.6,4.23003 8.88,9.14003 0.85,11.95003 l -21.98,5.82 c -2.28,0.14 -4.04,-0.28 -5.99,-1.51 -3.35,-2.12 -8.33,-8.93 -11.09,-12.26 l -23,-28.00003 -61.34,-75 -18.83,-23 c -2.31,-2.78 -8.62,-10.05 -9.8,-13 -1.4,-3.5 -0.07,-6.05 1.81,-9 3.02,-4.73 9.07,-13.73 13.41,-16.83 4.96,-0.46 6.79,3.28 9.75,6.83 z m -343.53,9 25.22,31 74.64,91 24.36,30.00003 c 2.63,3.21 9.5,10.64 10.89,14 2.22,5.38 -6.6,14.75 -9.92,19 -1.14,1.45 -3.42,4.4 -4.87,5.38 -5.19,3.54 -9.91,-4.89 -12.71,-8.38 l -29.61,-36 -54.84,-67.00003 c -4.34,-5.43 -19.76,-23.33 -21.99,-28 -2.01,-4.23 -3.88,-14.98 -4.98,-20 l -9.58,-44 c 5.86,1.8 9.62,8.36 13.39,13 z m 396.61,175.98003 c -3.49,1.06 -7.48,2.52 -11,0.83 -3.35,-1.61 -6.47,-5.93 -8.8,-8.81 l -14.62,-18 -54.97,-67.00003 -17.03,-21 c -2.22,-2.71 -5.84,-6.41 -6.2,-10 -0.49,-4.88 7.56,-13.96 10.6,-18 1.21,-1.61 3.34,-4.9 5.23,-5.6 4.41,-1.64 9.61,6.66 12.04,9.6 l 30.33,37 31.17,38 31.05,38.00003 c 4.56,5.64 11.46,11.96 13.2,19 z m -120.39,-96.98003 12.31,15 54.92,67.00003 14.32,18 c 2.94,3.62 4.97,6.27 0,8.61 -5.35,2.33 -21.14,7.81 -26.16,5.36 -4.73,-2.31 -16.08,-17.11 -20,-21.97 l -40,-49.00003 -14,-17 c -1.56,-1.95 -4.77,-5.59 -5.19,-8 -0.46,-2.59 1.25,-4.98 2.63,-7 2.97,-4.35 8.64,-13.11 12.59,-15.92 4.78,-0.95 5.68,1.42 8.58,4.92 z m -241.69,49 42.53,52.00003 c 5.05,6.32 16.19,18.03 18.55,25 -13.4,3.8 -20.69,-1.8 -31,-9.07 -9.22,-6.5 -4.55,-1.8 -13.17,-10.89 l -8.74,-8.08 c -7.61,-7.82 -17.64,-22.75 -21.63,-32.96003 l -9.46,-41 c 6.99,3.34 17.47,18.43 22.92,25 z m 203.1,-8.83 c 3.19,1.18 10.86,11.68 13.38,14.83 l 39.48,48.00003 10.25,13 c 2.52,3.25 4.25,5.9 0,8.2 -3.02,1.45 -14.39,3.92 -18.13,4.83 -2.56,0.63 -5.37,1.85 -7.99,1.01 -3.12,-0.99 -5.81,-4.58 -7.81,-7.04 l -13.2,-16 -26.25,-32 c -2.75,-3.3 -8.92,-9.40003 -7.78,-14.00003 1.09,-4.38 11.6,-18.13 15.32,-20.83 0.43,-0.04 1,-0.64 2.73,0 z m -25.1,54.83003 24.53,30 c 2.34,2.93 11.52,11.08003 5.4,13.98003 l -15.85,3.78 c -3.77,0.99 -7.1,2.88 -11,1.25 -5.39,-2.26 -10.1,-7.65 -13.75,-12.01003 -4.46,-5.32 -10.97,-11.81 -11.88,-19 -0.44,-3.46 0.69,-5.8 1.59,-9 2.33,-8.26 1.56,-12.01 10.11,-17.83 5.17,-0.48 7.81,5.15 10.85,8.83 z"
     style="fill:#6e6f6e;fill-opacity:1;stroke:#000000;stroke-width:0.54981816;stroke-miterlimit:4;stroke-dasharray:none;stroke-opacity:0.08411213"
     inkscape:connector-curvature="0"
     sodipodi:nodetypes="ccccccccccccccccccccccccccccccccccccccccccccccccccccccccccccccccccccccccccccccccccccccccccccccccccccccccccccccccccccccccccccccccccccccccccccccccccccccccccccccccccccccccccccccccccccccccccccccccccccccccccccccccccccccccccccccccccccccccccccccccccccccccccccccccccccccccccccccccccccccccccccccccccccccccccccccccccccccccccccccccccccccccccccccccccccccccccccccccccccccccccccccccsccccccccccccccccccccccccccccccccccccccccccccccccccccccccccccccccccccccccccccccccccccccccccccccccccccccccccccccccccccccccccccccccccccccccccccccccccccccccccccccccccccccccccccccccccccccccccccccccccccccccccccccccccccccccccccccccccccccccccsccccccccccccccccccccccccccccccccccccccccczccccccccccccccccccccccccccccccccccc" />
</svg>
