<?xml version="1.0" standalone="no"?><!-- Generator: Gravit.io --><svg xmlns="http://www.w3.org/2000/svg" xmlns:xlink="http://www.w3.org/1999/xlink" style="isolation:isolate" viewBox="1261.455 2140.243 1300.159 1342.498" width="1300.159" height="1342.498"><path d=" M 2132.607 2142.936 C 2132.607 2142.936 2144.592 2140.909 2144.592 2140.909 C 2144.592 2140.909 2154.111 2149.375 2154.111 2149.375 C 2154.111 2149.375 2172.042 2170.705 2172.042 2170.705 C 2172.042 2170.705 2225.409 2236.031 2225.409 2236.031 C 2225.409 2236.031 2248.94 2266.693 2248.94 2266.693 C 2248.94 2266.693 2247.366 2282.692 2247.366 2282.692 C 2247.366 2282.692 2241.927 2316.021 2241.927 2316.021 C 2234.915 2313.861 2231.288 2308.235 2226.742 2302.689 C 2226.742 2302.689 2203.812 2274.692 2203.812 2274.692 C 2203.812 2274.692 2137.513 2193.369 2137.513 2193.369 C 2130.488 2184.877 2107.344 2158.28 2103.278 2150.708 C 2103.278 2150.708 2132.607 2142.936 2132.607 2142.936 Z  M 2244.073 2170.759 C 2253.632 2182.357 2260.458 2207.674 2260.591 2222.699 C 2260.591 2222.699 2257.925 2224.032 2257.925 2224.032 C 2251.673 2220.059 2244.34 2210.034 2239.527 2204.035 C 2239.527 2204.035 2211.158 2169.372 2211.158 2169.372 C 2205.238 2162.24 2197.226 2154.614 2195.266 2145.375 C 2208.505 2147.762 2235.634 2160.507 2244.073 2170.759 Z  M 2053.95 2161.373 C 2057.617 2160.587 2063.642 2158.574 2067.055 2160.187 C 2069.975 2161.573 2077.841 2171.652 2080.44 2174.705 C 2080.44 2174.705 2110.757 2212.034 2110.757 2212.034 C 2110.757 2212.034 2196.066 2316.021 2196.066 2316.021 C 2196.066 2316.021 2218.93 2344.017 2218.93 2344.017 C 2222.369 2348.19 2229.675 2356.616 2231.408 2361.348 C 2233.488 2367.001 2231.742 2374.213 2230.702 2380.013 C 2230.702 2380.013 2224.596 2414.675 2224.596 2414.675 C 2217.197 2412.289 2212.251 2403.223 2207.371 2397.344 C 2207.371 2397.344 2172.429 2354.683 2172.429 2354.683 C 2172.429 2354.683 2125.595 2297.356 2125.595 2297.356 C 2125.595 2297.356 2067.549 2226.698 2067.549 2226.698 C 2067.549 2226.698 2039.179 2192.036 2039.179 2192.036 C 2034.139 2185.984 2025.087 2176.038 2021.954 2169.372 C 2021.954 2169.372 2053.95 2161.373 2053.95 2161.373 Z  M 1976.627 2179.491 C 1981.186 2178.464 1985.479 2176.665 1989.732 2179.491 C 1992.971 2181.704 2007.356 2199.782 2010.756 2204.035 C 2010.756 2204.035 2048.951 2250.695 2048.951 2250.695 C 2048.951 2250.695 2174.482 2404.01 2174.482 2404.01 C 2174.482 2404.01 2206.198 2442.672 2206.198 2442.672 C 2211.464 2449.191 2217.103 2453.684 2216.37 2462.669 C 2215.744 2470.228 2209.878 2503.064 2207.265 2509.33 C 2207.265 2509.33 2181.415 2480 2181.415 2480 C 2181.415 2480 2140.073 2429.34 2140.073 2429.34 C 2140.073 2429.34 2007.849 2268.027 2007.849 2268.027 C 2007.849 2268.027 1968.628 2220.033 1968.628 2220.033 C 1968.628 2220.033 1943.297 2190.703 1943.297 2190.703 C 1943.297 2190.703 1943.297 2188.037 1943.297 2188.037 C 1943.297 2188.037 1976.627 2179.491 1976.627 2179.491 Z  M 1893.97 2198.875 C 1897.596 2197.995 1905.169 2195.902 1908.622 2196.955 C 1913.821 2198.542 1924.286 2212.647 1928.113 2217.366 C 1928.113 2217.366 1969.627 2268.027 1969.627 2268.027 C 1969.627 2268.027 2047.898 2364.015 2047.898 2364.015 C 2047.898 2364.015 2148.605 2486.666 2148.605 2486.666 C 2148.605 2486.666 2183.534 2529.328 2183.534 2529.328 C 2188.134 2535.02 2196.893 2544.046 2198.879 2550.658 C 2200.546 2556.178 2198.959 2563.697 2198.039 2569.323 C 2196.479 2578.775 2194.733 2594.32 2191.267 2602.652 C 2182.761 2598.439 2166.523 2576.388 2159.804 2567.989 C 2159.804 2567.989 2096.505 2490.666 2096.505 2490.666 C 2096.505 2490.666 1949.35 2310.688 1949.35 2310.688 C 1949.35 2310.688 1889.357 2237.364 1889.357 2237.364 C 1889.357 2237.364 1864.641 2206.701 1864.641 2206.701 C 1873.906 2202.755 1884.198 2201.248 1893.97 2198.875 Z  M 1819.313 2216.313 C 1822.926 2215.553 1828.925 2214.1 1832.405 2215.5 C 1836.071 2216.993 1849.949 2234.591 1853.242 2238.697 C 1853.242 2238.697 1901.196 2297.356 1901.196 2297.356 C 1901.196 2297.356 1973.4 2385.345 1973.4 2385.345 C 1973.4 2385.345 2105.571 2546.659 2105.571 2546.659 C 2105.571 2546.659 2148.965 2599.985 2148.965 2599.985 C 2153.138 2604.905 2167.576 2621.343 2168.616 2626.649 C 2170.763 2637.701 2153.445 2645.113 2144.606 2646.006 C 2131.967 2647.273 2121.542 2631.368 2114.463 2622.649 C 2114.463 2622.649 2053.204 2547.992 2053.204 2547.992 C 2053.204 2547.992 1986.865 2466.669 1986.865 2466.669 C 1986.865 2466.669 1874.533 2329.579 1874.533 2329.579 C 1874.533 2329.579 1813.367 2254.695 1813.367 2254.695 C 1813.367 2254.695 1788.65 2224.032 1788.65 2224.032 C 1788.65 2224.032 1819.313 2216.313 1819.313 2216.313 Z  M 2324.01 2242.696 C 2338.328 2262.641 2350.18 2300.076 2360.379 2324.02 C 2365.245 2335.458 2375.537 2356.509 2376.577 2368.014 C 2368.378 2363.948 2362.352 2353.669 2356.406 2346.684 C 2356.406 2346.684 2310.639 2290.691 2310.639 2290.691 C 2304.306 2282.891 2291.881 2271.946 2292.827 2261.361 C 2292.827 2261.361 2301.92 2220.033 2301.92 2220.033 C 2310.572 2224.685 2318.291 2234.724 2324.01 2242.696 Z  M 1747.322 2233.604 C 1758.254 2232.631 1764.333 2244.576 1770.532 2252.029 C 1770.532 2252.029 1818.353 2310.688 1818.353 2310.688 C 1818.353 2310.688 1998.571 2530.661 1998.571 2530.661 C 1998.571 2530.661 2051.897 2595.986 2051.897 2595.986 C 2058.843 2604.532 2073.561 2619.756 2076.614 2629.315 C 2061.883 2628.595 2047.578 2620.21 2033.953 2615.237 C 2025.314 2612.077 2014.489 2610.224 2007.303 2604.612 C 2001.064 2599.732 1991.278 2586.587 1985.852 2579.988 C 1985.852 2579.988 1945.444 2530.661 1945.444 2530.661 C 1945.444 2530.661 1777.558 2325.353 1777.558 2325.353 C 1777.558 2325.353 1739.216 2278.692 1739.216 2278.692 C 1739.216 2278.692 1709.993 2242.696 1709.993 2242.696 C 1709.993 2242.696 1747.322 2233.604 1747.322 2233.604 Z  M 1667.332 2252.269 C 1678.21 2251.295 1682.623 2260.508 1688.662 2268.027 C 1688.662 2268.027 1728.111 2316.021 1728.111 2316.021 C 1728.111 2316.021 1878.585 2499.998 1878.585 2499.998 C 1878.585 2499.998 1920.087 2550.658 1920.087 2550.658 C 1926.42 2558.284 1938.565 2571.322 1941.964 2579.988 C 1941.964 2579.988 1940.631 2581.321 1940.631 2581.321 C 1924.206 2578.002 1911.955 2571.802 1896.637 2566.243 C 1887.358 2562.883 1879.519 2562.11 1871.306 2556.084 C 1863.481 2550.338 1854.975 2538.42 1848.536 2530.661 C 1848.536 2530.661 1808.101 2481.334 1808.101 2481.334 C 1808.101 2481.334 1703.327 2353.349 1703.327 2353.349 C 1703.327 2353.349 1653.187 2292.024 1653.187 2292.024 C 1646.761 2284.118 1633.669 2269.946 1630.003 2261.361 C 1630.003 2261.361 1667.332 2252.269 1667.332 2252.269 Z  M 1582.009 2272.186 C 1582.009 2272.186 1596.287 2271.04 1596.287 2271.04 C 1596.287 2271.04 1614.791 2292.024 1614.791 2292.024 C 1614.791 2292.024 1656.146 2342.684 1656.146 2342.684 C 1656.146 2342.684 1754.534 2462.669 1754.534 2462.669 C 1754.534 2462.669 1789.463 2505.331 1789.463 2505.331 C 1789.463 2505.331 1808.647 2530.661 1808.647 2530.661 C 1801.008 2532.141 1793.143 2528.288 1785.984 2525.741 C 1785.984 2525.741 1741.989 2509.45 1741.989 2509.45 C 1738.003 2507.29 1734.577 2504.464 1731.377 2501.278 C 1731.377 2501.278 1701.621 2465.336 1701.621 2465.336 C 1701.621 2465.336 1618.551 2364.015 1618.551 2364.015 C 1618.551 2364.015 1572.677 2308.022 1572.677 2308.022 C 1566.637 2300.543 1555.092 2288.104 1551.346 2280.025 C 1551.346 2280.025 1582.009 2272.186 1582.009 2272.186 Z  M 1504.685 2290.491 C 1508.805 2289.411 1513.711 2287.264 1517.79 2289.411 C 1521.683 2291.45 1528.882 2301.529 1531.948 2305.355 C 1531.948 2305.355 1558.345 2337.351 1558.345 2337.351 C 1558.345 2337.351 1641.228 2438.672 1641.228 2438.672 C 1641.228 2438.672 1664.145 2466.669 1664.145 2466.669 C 1669.131 2472.801 1673.211 2476.188 1675.331 2484 C 1658.466 2481.614 1640.375 2473.495 1624.67 2467.269 C 1616.911 2464.189 1610.165 2463.216 1603.34 2457.963 C 1597.38 2453.364 1588.088 2441.045 1582.795 2434.673 C 1582.795 2434.673 1544.574 2388.012 1544.574 2388.012 C 1544.574 2388.012 1493.407 2325.353 1493.407 2325.353 C 1493.407 2325.353 1472.689 2300.023 1472.689 2300.023 C 1482.235 2294.183 1494.006 2293.277 1504.685 2290.491 Z  M 1495.353 2421.354 C 1488.594 2418.568 1479.662 2416.128 1474.142 2411.489 C 1474.142 2411.489 1433.694 2362.682 1433.694 2362.682 C 1433.694 2362.682 1411.563 2336.018 1411.563 2336.018 C 1408.364 2332.112 1404.844 2327.926 1408.19 2322.913 C 1412.03 2317.141 1423.669 2312.608 1430.028 2309.701 C 1433.494 2308.115 1436.707 2306.462 1440.466 2308.315 C 1443.626 2309.861 1449.479 2317.101 1451.878 2320.02 C 1451.878 2320.02 1470.369 2342.684 1470.369 2342.684 C 1470.369 2342.684 1519.457 2402.677 1519.457 2402.677 C 1527.682 2412.649 1541.427 2427.074 1546.013 2438.672 C 1546.013 2438.672 1495.353 2421.354 1495.353 2421.354 Z  M 2299.627 2326.686 C 2299.627 2326.686 2334.529 2369.347 2334.529 2369.347 C 2334.529 2369.347 2364.232 2405.343 2364.232 2405.343 C 2364.232 2405.343 2376.79 2421.341 2376.79 2421.341 C 2384.429 2430.127 2410.466 2460.976 2415.306 2469.335 C 2420.425 2478.174 2427.904 2504.677 2431.677 2515.996 C 2431.677 2515.996 2440.596 2545.326 2440.596 2545.326 C 2442.689 2552.125 2445.502 2559.524 2444.569 2566.656 C 2444.569 2566.656 2405.8 2521.329 2405.8 2521.329 C 2405.8 2521.329 2322.917 2420.008 2322.917 2420.008 C 2322.917 2420.008 2287.988 2377.346 2287.988 2377.346 C 2287.988 2377.346 2273.776 2358.682 2273.776 2358.682 C 2273.776 2358.682 2275.416 2342.684 2275.416 2342.684 C 2275.416 2342.684 2283.255 2308.022 2283.255 2308.022 C 2290.068 2313.648 2294.081 2320.02 2299.627 2326.686 Z  M 1403.791 2376.013 C 1408.75 2381.986 1411.403 2382.652 1412.697 2390.678 C 1406.977 2389.598 1387.726 2380.066 1384.607 2375.653 C 1381.647 2371.441 1380.754 2358.669 1380.701 2353.349 C 1391.326 2357.522 1396.779 2367.574 1403.791 2376.013 Z  M 1328.707 2400.01 C 1328.707 2400.01 1349.664 2425.34 1349.664 2425.34 C 1349.664 2425.34 1440.173 2535.993 1440.173 2535.993 C 1440.173 2535.993 1774.252 2943.943 1774.252 2943.943 C 1774.252 2943.943 1837.524 3021.267 1837.524 3021.267 C 1837.524 3021.267 1861.708 3051.929 1861.708 3051.929 C 1864.854 3059.502 1852.269 3072.887 1847.576 3078.593 C 1845.576 3081.006 1842.59 3084.845 1839.404 3085.619 C 1835.191 3086.632 1831.551 3081.406 1829.205 3078.593 C 1829.205 3078.593 1807.314 3051.929 1807.314 3051.929 C 1807.314 3051.929 1774.705 3011.934 1774.705 3011.934 C 1774.705 3011.934 1715.592 2939.943 1715.592 2939.943 C 1715.592 2939.943 1383.713 2534.66 1383.713 2534.66 C 1383.713 2534.66 1321.708 2458.67 1321.708 2458.67 C 1321.708 2458.67 1304.15 2437.339 1304.15 2437.339 C 1301.257 2433.806 1296.258 2428.367 1295.031 2424.007 C 1292.191 2413.889 1307.31 2396.677 1315.375 2392.065 C 1322.588 2390.825 1324.441 2394.784 1328.707 2400.01 Z  M 1407.364 2407.703 C 1416.096 2410.996 1432.401 2415.608 1439.307 2420.954 C 1445.266 2425.554 1464.503 2449.911 1470.583 2457.337 C 1470.583 2457.337 1532.788 2533.327 1532.788 2533.327 C 1532.788 2533.327 1705.087 2743.968 1705.087 2743.968 C 1705.087 2743.968 1833.364 2899.948 1833.364 2899.948 C 1833.364 2899.948 1884.371 2962.607 1884.371 2962.607 C 1884.371 2962.607 1907.902 2991.937 1907.902 2991.937 C 1911.955 3000.016 1897.89 3013.814 1892.984 3019.907 C 1890.731 3022.693 1887.624 3026.626 1883.531 3025.039 C 1880.825 3023.986 1875.919 3017.094 1873.799 3014.601 C 1873.799 3014.601 1848.536 2983.938 1848.536 2983.938 C 1848.536 2983.938 1798.702 2922.612 1798.702 2922.612 C 1798.702 2922.612 1757.987 2873.285 1757.987 2873.285 C 1757.987 2873.285 1658.573 2751.967 1658.573 2751.967 C 1658.573 2751.967 1527.869 2591.986 1527.869 2591.986 C 1527.869 2591.986 1474.289 2526.661 1474.289 2526.661 C 1474.289 2526.661 1397.765 2433.339 1397.765 2433.339 C 1397.765 2433.339 1378.527 2409.569 1378.527 2409.569 C 1373.195 2403.13 1369.475 2400.544 1367.369 2392.011 C 1367.369 2392.011 1407.364 2407.703 1407.364 2407.703 Z  M 2294.187 2436.006 C 2294.187 2436.006 2346.727 2499.998 2346.727 2499.998 C 2346.727 2499.998 2425.131 2595.986 2425.131 2595.986 C 2425.131 2595.986 2466.393 2647.98 2466.393 2647.98 C 2466.393 2647.98 2476.191 2678.642 2476.191 2678.642 C 2476.191 2678.642 2484.204 2709.305 2484.204 2709.305 C 2484.204 2709.305 2493.896 2741.155 2493.896 2741.155 C 2493.896 2741.155 2490.123 2741.155 2490.123 2741.155 C 2490.123 2741.155 2472.725 2721.304 2472.725 2721.304 C 2472.725 2721.304 2424.571 2662.644 2424.571 2662.644 C 2424.571 2662.644 2349.14 2570.656 2349.14 2570.656 C 2349.14 2570.656 2305.746 2517.329 2305.746 2517.329 C 2305.746 2517.329 2269.59 2473.335 2269.59 2473.335 C 2269.59 2473.335 2253.992 2452.004 2253.992 2452.004 C 2253.992 2452.004 2256.125 2433.339 2256.125 2433.339 C 2256.125 2433.339 2263.258 2400.01 2263.258 2400.01 C 2263.258 2400.01 2294.187 2436.006 2294.187 2436.006 Z  M 1544.68 2458.603 C 1552.826 2461.589 1565.958 2464.802 1572.557 2469.628 C 1580.689 2475.561 1590.061 2489.319 1596.847 2497.332 C 1596.847 2497.332 1649.467 2561.324 1649.467 2561.324 C 1649.467 2561.324 1710.713 2635.981 1710.713 2635.981 C 1710.713 2635.981 1861.201 2819.958 1861.201 2819.958 C 1861.201 2819.958 1931.192 2905.281 1931.192 2905.281 C 1931.192 2905.281 1949.497 2927.945 1949.497 2927.945 C 1951.79 2930.984 1954.923 2934.597 1954.909 2938.61 C 1954.883 2943.41 1950.87 2946.476 1947.857 2949.649 C 1947.857 2949.649 1936.205 2963.727 1936.205 2963.727 C 1930.872 2968.82 1928.113 2965.7 1924.073 2961.247 C 1924.073 2961.247 1907.369 2941.276 1907.369 2941.276 C 1907.369 2941.276 1874.693 2901.281 1874.693 2901.281 C 1874.693 2901.281 1830.791 2847.955 1830.791 2847.955 C 1830.791 2847.955 1681.223 2665.311 1681.223 2665.311 C 1681.223 2665.311 1601.646 2567.989 1601.646 2567.989 C 1601.646 2567.989 1531.868 2482.667 1531.868 2482.667 C 1524.536 2473.721 1506.072 2454.044 1503.352 2444.005 C 1516.004 2445.965 1532.215 2454.03 1544.68 2458.603 Z  M 1289.778 2466.669 C 1289.778 2466.669 1307.27 2487.999 1307.27 2487.999 C 1307.27 2487.999 1385.86 2583.987 1385.86 2583.987 C 1385.86 2583.987 1490.58 2711.972 1490.58 2711.972 C 1490.58 2711.972 1586.728 2829.29 1586.728 2829.29 C 1586.728 2829.29 1610.565 2859.953 1610.565 2859.953 C 1610.565 2859.953 1632.669 2885.337 1632.669 2885.337 C 1632.669 2885.337 1649.227 2906.614 1649.227 2906.614 C 1649.227 2906.614 1666.745 2926.612 1666.745 2926.612 C 1666.745 2926.612 1717.659 2989.271 1717.659 2989.271 C 1717.659 2989.271 1787.65 3074.593 1787.65 3074.593 C 1787.65 3074.593 1808.381 3099.923 1808.381 3099.923 C 1810.727 3102.83 1815.94 3108.549 1816.86 3111.922 C 1817.82 3115.495 1816.153 3118.361 1814.26 3121.254 C 1811.367 3125.667 1799.355 3142.025 1795.276 3143.811 C 1790.436 3145.931 1787.423 3141.852 1784.65 3138.559 C 1784.65 3138.559 1762.973 3111.922 1762.973 3111.922 C 1762.973 3111.922 1671.065 2999.936 1671.065 2999.936 C 1671.065 2999.936 1552.679 2853.301 1552.679 2853.301 C 1552.679 2853.301 1536.854 2835.956 1536.854 2835.956 C 1536.854 2835.956 1499.699 2790.629 1499.699 2790.629 C 1499.699 2790.629 1347.945 2605.318 1347.945 2605.318 C 1347.945 2605.318 1291.538 2535.993 1291.538 2535.993 C 1286.872 2530.008 1271.647 2513.276 1269.688 2507.997 C 1266.755 2500.051 1272.047 2480.627 1273.78 2472.001 C 1274.82 2466.842 1274.767 2462.683 1278.62 2458.896 C 1284.419 2458.296 1286.366 2462.469 1289.778 2466.669 Z  M 1676.664 2507.077 C 1685.703 2510.29 1698.514 2513.543 1705.98 2519.369 C 1711.766 2523.888 1725.178 2541.273 1730.777 2547.992 C 1730.777 2547.992 1779.878 2607.984 1779.878 2607.984 C 1779.878 2607.984 1870.693 2718.637 1870.693 2718.637 C 1870.693 2718.637 1924.993 2785.296 1924.993 2785.296 C 1924.993 2785.296 1979.626 2851.954 1979.626 2851.954 C 1983.932 2857.127 1999.37 2874.245 1999.77 2879.951 C 2000.024 2883.644 1997.611 2886.51 1995.544 2889.283 C 1992.238 2893.736 1983.972 2905.548 1980.053 2908.294 C 1971.414 2914.347 1960.949 2896.575 1956.109 2890.616 C 1956.109 2890.616 1894.85 2815.959 1894.85 2815.959 C 1894.85 2815.959 1818.54 2722.637 1818.54 2722.637 C 1818.54 2722.637 1716.086 2597.319 1716.086 2597.319 C 1716.086 2597.319 1660.333 2529.328 1660.333 2529.328 C 1653.24 2520.755 1636.562 2502.438 1632.669 2493.332 C 1632.669 2493.332 1634.002 2491.999 1634.002 2491.999 C 1634.002 2491.999 1676.664 2507.077 1676.664 2507.077 Z  M 2247.26 2491.999 C 2247.26 2491.999 2270.643 2521.329 2270.643 2521.329 C 2270.643 2521.329 2318.638 2579.988 2318.638 2579.988 C 2318.638 2579.988 2435.343 2722.637 2435.343 2722.637 C 2435.343 2722.637 2485.63 2783.963 2485.63 2783.963 C 2491.923 2791.748 2505.108 2806.6 2509.361 2814.626 C 2516.186 2827.477 2518.693 2849.435 2521.132 2863.953 C 2523.092 2875.551 2526.972 2886.777 2527.225 2898.615 C 2518.359 2894.216 2509.974 2881.031 2503.401 2873.285 C 2503.401 2873.285 2452.048 2810.626 2452.048 2810.626 C 2452.048 2810.626 2290.694 2613.317 2290.694 2613.317 C 2290.694 2613.317 2250.379 2563.99 2250.379 2563.99 C 2246.327 2558.897 2236.128 2548.432 2234.661 2542.659 C 2233.635 2538.62 2235.754 2532.327 2236.421 2527.994 C 2237.768 2519.076 2241.594 2500.145 2244.593 2491.999 C 2244.593 2491.999 2247.26 2491.999 2247.26 2491.999 Z  M 1813.98 2557.257 C 1822.099 2560.217 1834.058 2563.057 1840.523 2568.509 C 1840.523 2568.509 1861.428 2593.32 1861.428 2593.32 C 1861.428 2593.32 1904.116 2645.313 1904.116 2645.313 C 1904.116 2645.313 2000.104 2762.632 2000.104 2762.632 C 2000.104 2762.632 2042.432 2814.626 2042.432 2814.626 C 2049.151 2824.971 2036.792 2836.25 2030.553 2843.955 C 2027.927 2847.195 2024.354 2853.167 2019.381 2851.421 C 2015.009 2849.888 2003.117 2833.703 1999.557 2829.29 C 1999.557 2829.29 1952.47 2771.964 1952.47 2771.964 C 1952.47 2771.964 1907.649 2717.304 1907.649 2717.304 C 1907.649 2717.304 1822.752 2613.317 1822.752 2613.317 C 1822.752 2613.317 1784.384 2566.656 1784.384 2566.656 C 1778.265 2559.084 1769.479 2550.258 1765.986 2541.326 C 1780.491 2542.539 1799.689 2552.031 1813.98 2557.257 Z  M 1279.113 2567.989 C 1279.113 2567.989 1303.11 2597.319 1303.11 2597.319 C 1303.11 2597.319 1386.033 2698.64 1386.033 2698.64 C 1386.033 2698.64 1487.874 2822.625 1487.874 2822.625 C 1487.874 2822.625 1590.568 2949.276 1590.568 2949.276 C 1590.568 2949.276 1646.561 3017.267 1646.561 3017.267 C 1646.561 3017.267 1665.545 3039.931 1665.545 3039.931 C 1665.545 3039.931 1739.843 3130.586 1739.843 3130.586 C 1739.843 3130.586 1761.533 3157.25 1761.533 3157.25 C 1764.493 3160.969 1769.866 3166.435 1771.519 3170.581 C 1775.158 3179.74 1765.826 3186.566 1761.107 3193.245 C 1758.707 3196.658 1755.227 3202.137 1751.308 3203.804 C 1746.389 3205.897 1743.056 3201.951 1740.203 3198.551 C 1740.203 3198.551 1718.512 3171.915 1718.512 3171.915 C 1718.512 3171.915 1627.337 3059.928 1627.337 3059.928 C 1627.337 3059.928 1475.915 2875.951 1475.915 2875.951 C 1475.915 2875.951 1385.313 2765.298 1385.313 2765.298 C 1385.313 2765.298 1341.865 2711.972 1341.865 2711.972 C 1341.865 2711.972 1299.271 2659.978 1299.271 2659.978 C 1294.258 2653.952 1278.033 2634.994 1275.167 2629.315 C 1275.167 2629.315 1267.208 2597.319 1267.208 2597.319 C 1264.248 2585.094 1259.969 2564.017 1263.382 2551.991 C 1270.114 2555.458 1274.434 2562.19 1279.113 2567.989 Z  M 2254.445 2615.984 C 2254.445 2615.984 2311.252 2685.308 2311.252 2685.308 C 2311.252 2685.308 2494.709 2909.28 2494.709 2909.28 C 2494.709 2909.28 2523.119 2943.943 2523.119 2943.943 C 2527.652 2949.409 2537.21 2960.567 2539.85 2966.607 C 2544.383 2976.965 2543.236 2983.405 2544.41 2993.27 C 2544.41 2993.27 2547.462 3015.934 2547.462 3015.934 C 2548.609 3024.653 2552.982 3033.812 2551.222 3042.597 C 2543.143 3038.598 2529.811 3019.747 2523.492 3011.934 C 2523.492 3011.934 2467.752 2943.943 2467.752 2943.943 C 2467.752 2943.943 2338.728 2786.629 2338.728 2786.629 C 2338.728 2786.629 2271.363 2703.973 2271.363 2703.973 C 2263.778 2694.827 2253.472 2679.976 2248.353 2669.31 C 2248.353 2669.31 2243.5 2660 2243.5 2660 C 2243.5 2660 2237.554 2646.646 2237.554 2646.646 C 2235.408 2642.86 2225.849 2621.036 2224.876 2617.317 C 2224.476 2613.917 2223.213 2610.406 2223 2607.5 C 2222.587 2599.874 2218.25 2594.733 2224.876 2582.654 C 2233.448 2587.64 2247.38 2607.291 2254.445 2615.984 Z  M 1915.301 2592.426 C 1915.301 2592.426 1941.964 2602.239 1941.964 2602.239 C 1950.83 2606.158 1962.455 2608.331 1969.961 2613.944 C 1978.066 2620.01 1992.691 2639.234 1999.85 2647.98 C 1999.85 2647.98 2050.058 2709.305 2050.058 2709.305 C 2050.058 2709.305 2078.281 2743.968 2078.281 2743.968 C 2081.44 2747.794 2089.653 2756.673 2090.319 2761.299 C 2091.292 2768.125 2080.054 2780.07 2075.948 2785.296 C 2074.068 2787.682 2071.482 2791.695 2068.549 2792.762 C 2062.856 2794.828 2054.684 2782.536 2051.551 2778.63 C 2051.551 2778.63 2007.849 2725.303 2007.849 2725.303 C 2007.849 2725.303 1962.068 2669.31 1962.068 2669.31 C 1962.068 2669.31 1924.966 2623.983 1924.966 2623.983 C 1917.434 2614.944 1903.422 2598.812 1897.97 2589.32 C 1905.022 2587.96 1908.675 2590.267 1915.301 2592.426 Z  M 2081.72 2654.405 C 2081.72 2654.405 2087.506 2659.191 2087.506 2659.191 C 2092.306 2662.978 2095.119 2663.711 2098.638 2669.364 C 2102.864 2676.149 2107.773 2682.741 2108 2690.5 C 2108 2690.5 2109 2701 2109 2701 C 2110.413 2708.292 2107.53 2713.345 2105.944 2721.304 C 2094.865 2715.358 2088.773 2705.386 2080.947 2695.974 C 2080.947 2695.974 2050.404 2658.645 2050.404 2658.645 C 2044.072 2650.686 2040.525 2648.526 2036.619 2638.647 C 2047.045 2639.581 2073.201 2648.806 2081.72 2654.405 Z  M 1330.72 2743.968 C 1330.72 2743.968 1351.891 2769.298 1351.891 2769.298 C 1351.891 2769.298 1403.978 2833.29 1403.978 2833.29 C 1403.978 2833.29 1634.522 3115.922 1634.522 3115.922 C 1634.522 3115.922 1703.167 3198.578 1703.167 3198.578 C 1708.02 3204.764 1724.924 3223.148 1726.524 3229.241 C 1728.471 3236.68 1718.125 3246.305 1713.859 3251.905 C 1712.206 3254.064 1709.246 3258.637 1706.9 3259.797 C 1702.994 3261.73 1699.448 3258.437 1696.888 3255.824 C 1696.888 3255.824 1677.397 3231.907 1677.397 3231.907 C 1677.397 3231.907 1645.094 3193.245 1645.094 3193.245 C 1645.094 3193.245 1596.674 3133.253 1596.674 3133.253 C 1596.674 3133.253 1430.748 2930.611 1430.748 2930.611 C 1430.748 2930.611 1378.487 2866.619 1378.487 2866.619 C 1378.487 2866.619 1329.36 2806.627 1329.36 2806.627 C 1329.36 2806.627 1309.003 2781.296 1309.003 2781.296 C 1305.057 2774.497 1301.377 2753.86 1299.644 2745.301 C 1299.644 2745.301 1290.045 2695.974 1290.045 2695.974 C 1298.164 2702.293 1322.841 2734.062 1330.72 2743.968 Z  M 2532.558 3133.253 C 2532.558 3133.253 2479.058 3067.927 2479.058 3067.927 C 2479.058 3067.927 2421.291 2997.27 2421.291 2997.27 C 2421.291 2997.27 2330.476 2886.617 2330.476 2886.617 C 2330.476 2886.617 2266.124 2807.96 2266.124 2807.96 C 2266.124 2807.96 2246.646 2783.963 2246.646 2783.963 C 2246.646 2783.963 2208.265 2737.302 2208.265 2737.302 C 2204.332 2732.542 2189.414 2716.171 2189.547 2710.838 C 2189.667 2705.532 2198.332 2706.599 2201.932 2706.639 C 2201.932 2706.639 2231.262 2707.505 2231.262 2707.505 C 2240.607 2708.652 2252.232 2725.93 2258.192 2733.302 C 2258.192 2733.302 2319.411 2807.96 2319.411 2807.96 C 2319.411 2807.96 2401.494 2907.947 2401.494 2907.947 C 2401.494 2907.947 2506.001 3035.931 2506.001 3035.931 C 2506.001 3035.931 2535.397 3071.927 2535.397 3071.927 C 2539.943 3077.286 2554.822 3094.817 2557.301 3099.923 C 2561.914 3109.362 2559.128 3114.135 2559.354 3121.254 C 2560.128 3133.293 2562.514 3149.651 2559.354 3161.249 C 2549.969 3157.943 2538.97 3141.238 2532.558 3133.253 Z  M 2198.306 2774.63 C 2198.306 2774.63 2229.315 2811.959 2229.315 2811.959 C 2229.315 2811.959 2263.818 2854.621 2263.818 2854.621 C 2263.818 2854.621 2499.948 3142.585 2499.948 3142.585 C 2499.948 3142.585 2540.09 3191.912 2540.09 3191.912 C 2543.983 3196.925 2554.262 3208.03 2555.635 3213.243 C 2557.901 3221.788 2548.809 3234.653 2543.983 3241.239 C 2541.797 3244.226 2538.49 3249.412 2534.091 3247.679 C 2531.624 3246.719 2526.758 3240.773 2524.972 3238.573 C 2524.972 3238.573 2506.628 3215.909 2506.628 3215.909 C 2506.628 3215.909 2442.356 3137.252 2442.356 3137.252 C 2442.356 3137.252 2337.195 3009.268 2337.195 3009.268 C 2337.195 3009.268 2277.016 2935.944 2277.016 2935.944 C 2277.016 2935.944 2219.437 2865.286 2219.437 2865.286 C 2219.437 2865.286 2193.373 2833.29 2193.373 2833.29 C 2193.373 2833.29 2161.777 2794.628 2161.777 2794.628 C 2157.564 2789.189 2142.699 2773.924 2142.673 2767.965 C 2142.659 2764.445 2145.806 2760.139 2147.739 2757.299 C 2147.739 2757.299 2163.27 2735.969 2163.27 2735.969 C 2172.789 2740.515 2190.893 2765.298 2198.306 2774.63 Z  M 2121.849 2799.841 C 2126.235 2800.654 2136.3 2814.626 2139.606 2818.625 C 2139.606 2818.625 2194.2 2885.283 2194.2 2885.283 C 2194.2 2885.283 2420.052 3161.249 2420.052 3161.249 C 2420.052 3161.249 2483.564 3238.573 2483.564 3238.573 C 2483.564 3238.573 2495.402 3253.238 2495.402 3253.238 C 2497.029 3255.211 2500.082 3258.357 2500.108 3261.064 C 2500.148 3263.41 2498.309 3264.556 2496.469 3265.503 C 2496.469 3265.503 2471.232 3272.462 2471.232 3272.462 C 2467.566 3273.489 2463.033 3275.102 2459.287 3273.755 C 2454.074 3271.889 2444.195 3258.024 2440.236 3253.238 C 2440.236 3253.238 2394.428 3197.245 2394.428 3197.245 C 2394.428 3197.245 2278.483 3055.929 2278.483 3055.929 C 2278.483 3055.929 2167.376 2919.946 2167.376 2919.946 C 2167.376 2919.946 2116.983 2858.62 2116.983 2858.62 C 2113.01 2853.847 2098.105 2836.729 2097.332 2831.957 C 2096.678 2827.997 2099.038 2824.451 2101.091 2821.291 C 2105.171 2815.012 2112.396 2804.427 2118.169 2799.841 C 2118.862 2799.921 2119.702 2799.121 2121.849 2799.841 Z  M 1326.041 2851.954 C 1326.041 2851.954 1353.224 2885.283 1353.224 2885.283 C 1353.224 2885.283 1413.416 2958.608 1413.416 2958.608 C 1413.416 2958.608 1610.525 3201.244 1610.525 3201.244 C 1610.525 3201.244 1663.172 3263.903 1663.172 3263.903 C 1666.652 3268.343 1679.037 3282.727 1680.663 3286.567 C 1684.183 3294.846 1671.571 3307.191 1666.598 3313.204 C 1664.265 3316.03 1661.159 3320.976 1656.84 3319.363 C 1653.84 3318.243 1649.161 3311.844 1647.001 3309.231 C 1647.001 3309.231 1628.51 3286.567 1628.51 3286.567 C 1628.51 3286.567 1563.864 3206.577 1563.864 3206.577 C 1563.864 3206.577 1521.296 3155.917 1521.296 3155.917 C 1521.296 3155.917 1414.55 3025.266 1414.55 3025.266 C 1414.55 3025.266 1365.622 2965.274 1365.622 2965.274 C 1360.343 2958.768 1345.492 2941.89 1342.292 2935.944 C 1339.079 2929.985 1334.813 2907.747 1333.24 2899.948 C 1333.24 2899.948 1323.374 2851.954 1323.374 2851.954 C 1323.374 2851.954 1326.041 2851.954 1326.041 2851.954 Z  M 2396.575 3293.206 C 2392.668 3294.393 2387.256 3296.246 2383.256 3294.859 C 2377.977 3293.046 2367.991 3279.408 2364.059 3274.568 C 2364.059 3274.568 2323.77 3225.241 2323.77 3225.241 C 2323.77 3225.241 2129.394 2987.937 2129.394 2987.937 C 2129.394 2987.937 2072.508 2918.613 2072.508 2918.613 C 2067.975 2913.173 2053.11 2896.989 2052.99 2890.616 C 2052.897 2886.043 2066.695 2866.566 2070.388 2862.82 C 2073.255 2859.9 2076.254 2858.1 2080 2860.78 C 2080 2860.78 2103.811 2889.283 2103.811 2889.283 C 2103.811 2889.283 2149.605 2945.276 2149.605 2945.276 C 2149.605 2945.276 2202.039 3009.268 2202.039 3009.268 C 2202.039 3009.268 2259.818 3079.926 2259.818 3079.926 C 2259.818 3079.926 2293.761 3121.254 2293.761 3121.254 C 2293.761 3121.254 2326.677 3161.249 2326.677 3161.249 C 2326.677 3161.249 2385.389 3233.24 2385.389 3233.24 C 2385.389 3233.24 2411.773 3265.236 2411.773 3265.236 C 2416.532 3271.182 2422.091 3276.608 2424.571 3283.901 C 2424.571 3283.901 2396.575 3293.206 2396.575 3293.206 Z  M 2033.846 2920.172 C 2037.619 2921.586 2047.391 2934.851 2050.524 2938.61 C 2050.524 2938.61 2101.944 3001.269 2101.944 3001.269 C 2101.944 3001.269 2290.908 3231.907 2290.908 3231.907 C 2290.908 3231.907 2333.196 3283.901 2333.196 3283.901 C 2336.302 3287.727 2347.581 3298.632 2346.261 3303.538 C 2345.261 3307.244 2335.995 3309.471 2332.582 3310.537 C 2326.49 3312.417 2311.638 3317.217 2305.932 3315.097 C 2300.813 3313.19 2291.681 3300.605 2287.815 3295.899 C 2287.815 3295.899 2249.659 3249.238 2249.659 3249.238 C 2249.659 3249.238 2119.996 3090.591 2119.996 3090.591 C 2119.996 3090.591 2064.162 3022.6 2064.162 3022.6 C 2064.162 3022.6 2023.807 2973.273 2023.807 2973.273 C 2020.168 2968.793 2009.396 2957.115 2008.676 2951.942 C 2008.129 2947.929 2010.916 2944.409 2013.009 2941.276 C 2017.662 2934.371 2023.247 2924.825 2030.073 2920.172 C 2030.713 2920.106 2031.553 2919.306 2033.846 2920.172 Z  M 2000.837 2990.604 C 2000.837 2990.604 2023.887 3018.6 2023.887 3018.6 C 2023.887 3018.6 2102.464 3114.588 2102.464 3114.588 C 2102.464 3114.588 2175.602 3203.911 2175.602 3203.911 C 2175.602 3203.911 2216.037 3253.238 2216.037 3253.238 C 2216.037 3253.238 2259.485 3306.565 2259.485 3306.565 C 2262.684 3310.311 2274.47 3321.843 2271.15 3327.149 C 2269.004 3330.588 2255.445 3332.615 2251.259 3333.508 C 2246.686 3334.481 2238.034 3337.694 2233.928 3336.374 C 2228.209 3334.548 2221.25 3324.642 2217.37 3319.896 C 2217.37 3319.896 2182.268 3277.235 2182.268 3277.235 C 2182.268 3277.235 2025.341 3085.259 2025.341 3085.259 C 2025.341 3085.259 1984.012 3034.598 1984.012 3034.598 C 1980.359 3030.105 1967.948 3016.774 1967.014 3011.934 C 1966.335 3008.348 1968.828 3004.175 1970.694 3001.269 C 1970.694 3001.269 1987.292 2978.605 1987.292 2978.605 C 1994.771 2981.285 1995.811 2984.818 2000.837 2990.604 Z  M 1383.7 3038.598 C 1383.7 3038.598 1430.588 3095.924 1430.588 3095.924 C 1430.588 3095.924 1509.405 3191.912 1509.405 3191.912 C 1509.405 3191.912 1553.239 3246.572 1553.239 3246.572 C 1553.239 3246.572 1582.529 3281.234 1582.529 3281.234 C 1582.529 3281.234 1618.338 3325.229 1618.338 3325.229 C 1621.737 3329.348 1633.176 3342.427 1634.522 3346.56 C 1637.149 3354.612 1625.23 3367.304 1620.404 3373.223 C 1618.764 3375.223 1616.125 3378.676 1613.805 3379.782 C 1607.392 3382.808 1597.327 3366.997 1593.741 3362.558 C 1593.741 3362.558 1540.347 3297.232 1540.347 3297.232 C 1540.347 3297.232 1439.88 3174.581 1439.88 3174.581 C 1439.88 3174.581 1400.591 3126.587 1400.591 3126.587 C 1395.192 3120.028 1382.007 3104.91 1378.501 3098.59 C 1373.581 3089.751 1370.688 3071.794 1368.422 3061.262 C 1368.422 3061.262 1358.037 3009.268 1358.037 3009.268 C 1365.902 3015.174 1376.928 3030.399 1383.7 3038.598 Z  M 1958.722 3053.263 C 1958.722 3053.263 1994.678 3097.257 1994.678 3097.257 C 1994.678 3097.257 2144.272 3279.901 2144.272 3279.901 C 2144.272 3279.901 2186.507 3331.895 2186.507 3331.895 C 2190.04 3336.134 2201.279 3346.2 2192.4 3350.572 C 2185.201 3354.119 2164.243 3360.238 2156.658 3357.065 C 2151.485 3354.905 2145.912 3346.96 2142.273 3342.56 C 2142.273 3342.56 2113.783 3307.898 2113.783 3307.898 C 2113.783 3307.898 2054.764 3235.907 2054.764 3235.907 C 2054.764 3235.907 1966.735 3127.92 1966.735 3127.92 C 1966.735 3127.92 1934.925 3089.258 1934.925 3089.258 C 1931.352 3084.979 1922.78 3076.22 1922.633 3070.594 C 1922.54 3066.568 1925.78 3062.995 1928.006 3059.928 C 1932.539 3053.689 1936.392 3046.29 1942.391 3041.371 C 1949.683 3039.824 1954.483 3048.17 1958.722 3053.263 Z  M 1916.101 3117.255 C 1916.101 3117.255 1955.403 3165.249 1955.403 3165.249 C 1955.403 3165.249 2026.474 3251.905 2026.474 3251.905 C 2026.474 3251.905 2075.454 3311.897 2075.454 3311.897 C 2075.454 3311.897 2107.117 3350.559 2107.117 3350.559 C 2109.61 3353.745 2116.996 3361.184 2116.569 3365.051 C 2116.183 3368.624 2111.45 3369.997 2108.61 3370.997 C 2102.584 3373.116 2089.133 3377.796 2083.28 3378.316 C 2072.921 3379.236 2068.589 3371.063 2062.763 3363.891 C 2062.763 3363.891 2025.687 3318.563 2025.687 3318.563 C 2025.687 3318.563 1919.82 3189.246 1919.82 3189.246 C 1919.82 3189.246 1889.357 3151.917 1889.357 3151.917 C 1886.158 3147.984 1878.812 3140.425 1877.439 3135.919 C 1875.999 3131.133 1878.545 3127.64 1881.158 3123.921 C 1885.638 3117.535 1892.05 3107.123 1898.076 3102.696 C 1906.142 3101.057 1911.635 3111.682 1916.101 3117.255 Z  M 1867.2 3171.915 C 1867.2 3171.915 1893.597 3203.911 1893.597 3203.911 C 1893.597 3203.911 1938.071 3258.57 1938.071 3258.57 C 1938.071 3258.57 2005.076 3339.894 2005.076 3339.894 C 2005.076 3339.894 2035.459 3377.222 2035.459 3377.222 C 2040.259 3382.862 2047.298 3389.408 2036.593 3393.154 C 2036.593 3393.154 2007.289 3400.913 2007.289 3400.913 C 2004.25 3401.099 2001.903 3400.54 1999.304 3398.9 C 1994.838 3396.073 1988.199 3386.995 1984.519 3382.555 C 1984.519 3382.555 1953.856 3345.226 1953.856 3345.226 C 1953.856 3345.226 1872.08 3245.239 1872.08 3245.239 C 1872.08 3245.239 1846.976 3214.576 1846.976 3214.576 C 1843.896 3210.87 1835.484 3201.178 1833.911 3197.245 C 1832.045 3192.579 1833.818 3189.179 1836.324 3185.246 C 1840.35 3178.94 1848.416 3166.942 1854.202 3162.809 C 1860.814 3162.196 1863.254 3167.182 1867.2 3171.915 Z  M 1409.217 3183.913 C 1409.217 3183.913 1442.839 3225.241 1442.839 3225.241 C 1442.839 3225.241 1542.347 3346.56 1542.347 3346.56 C 1542.347 3346.56 1574.823 3386.555 1574.823 3386.555 C 1578.329 3390.834 1587.488 3400.74 1589.341 3405.219 C 1592.301 3412.391 1580.542 3424.883 1576.116 3430.549 C 1574.596 3432.482 1571.557 3436.415 1569.624 3437.722 C 1562.705 3442.441 1556.412 3431.202 1552.679 3426.55 C 1552.679 3426.55 1513.204 3378.556 1513.204 3378.556 C 1513.204 3378.556 1440.093 3289.233 1440.093 3289.233 C 1434.307 3281.994 1413.75 3258.131 1410.777 3251.905 C 1408.097 3246.265 1405.604 3231.934 1404.138 3225.241 C 1404.138 3225.241 1391.366 3166.582 1391.366 3166.582 C 1399.178 3168.982 1404.191 3177.727 1409.217 3183.913 Z  M 1937.965 3418.524 C 1933.312 3419.937 1927.993 3421.884 1923.3 3419.631 C 1918.834 3417.484 1914.674 3411.725 1911.568 3407.885 C 1911.568 3407.885 1892.077 3383.888 1892.077 3383.888 C 1892.077 3383.888 1818.793 3294.566 1818.793 3294.566 C 1818.793 3294.566 1796.089 3266.569 1796.089 3266.569 C 1793.129 3262.957 1788.303 3258.024 1787.823 3253.238 C 1787.17 3246.732 1797.902 3234.627 1801.955 3229.241 C 1803.568 3227.094 1806.408 3222.708 1808.927 3221.775 C 1814.807 3219.589 1821.739 3230.654 1824.979 3234.573 C 1824.979 3234.573 1865.414 3283.901 1865.414 3283.901 C 1865.414 3283.901 1906.969 3334.561 1906.969 3334.561 C 1906.969 3334.561 1948.363 3385.221 1948.363 3385.221 C 1954.443 3392.741 1963.642 3401.166 1965.961 3410.552 C 1965.961 3410.552 1937.965 3418.524 1937.965 3418.524 Z  M 1777.465 3289.233 C 1777.465 3289.233 1793.876 3309.231 1793.876 3309.231 C 1793.876 3309.231 1867.094 3398.553 1867.094 3398.553 C 1867.094 3398.553 1886.184 3422.55 1886.184 3422.55 C 1890.104 3427.376 1892.81 3430.909 1886.184 3434.029 C 1879.052 3437.135 1858.001 3444.441 1851.309 3441.175 C 1845.003 3438.095 1829.871 3418.364 1824.645 3411.885 C 1824.645 3411.885 1771.319 3346.56 1771.319 3346.56 C 1771.319 3346.56 1752.654 3323.896 1752.654 3323.896 C 1750.575 3321.296 1746.295 3316.443 1745.735 3313.23 C 1745.122 3309.777 1747.402 3306.591 1749.241 3303.898 C 1753.201 3298.099 1760.76 3286.42 1766.026 3282.674 C 1772.399 3281.408 1773.598 3284.567 1777.465 3289.233 Z  M 1455.251 3354.559 C 1455.251 3354.559 1511.951 3423.883 1511.951 3423.883 C 1518.683 3432.309 1533.535 3447.92 1536.681 3457.213 C 1518.817 3462.279 1509.098 3454.813 1495.353 3445.121 C 1483.061 3436.455 1489.287 3442.721 1477.795 3430.602 C 1477.795 3430.602 1466.143 3419.83 1466.143 3419.83 C 1455.998 3409.405 1442.626 3389.501 1437.307 3375.889 C 1437.307 3375.889 1424.695 3321.229 1424.695 3321.229 C 1434.014 3325.682 1447.986 3345.8 1455.251 3354.559 Z  M 1726.018 3342.787 C 1730.27 3344.36 1740.496 3358.358 1743.855 3362.558 C 1743.855 3362.558 1796.489 3426.55 1796.489 3426.55 C 1796.489 3426.55 1810.154 3443.881 1810.154 3443.881 C 1813.514 3448.214 1815.82 3451.747 1810.154 3454.813 C 1806.128 3456.746 1790.97 3460.039 1785.984 3461.252 C 1782.571 3462.092 1778.824 3463.718 1775.332 3462.599 C 1771.172 3461.279 1767.586 3456.493 1764.92 3453.213 C 1764.92 3453.213 1747.322 3431.882 1747.322 3431.882 C 1747.322 3431.882 1712.326 3389.221 1712.326 3389.221 C 1708.66 3384.821 1700.434 3376.689 1701.954 3370.557 C 1703.407 3364.717 1717.419 3346.386 1722.378 3342.787 C 1722.951 3342.733 1723.711 3341.933 1726.018 3342.787 Z  M 1692.555 3415.884 C 1692.555 3415.884 1725.258 3455.879 1725.258 3455.879 C 1728.377 3459.786 1740.616 3470.651 1732.457 3474.517 C 1732.457 3474.517 1711.326 3479.543 1711.326 3479.543 C 1706.3 3480.876 1701.861 3483.396 1696.661 3481.223 C 1689.476 3478.21 1683.196 3471.024 1678.33 3465.212 C 1672.384 3458.119 1663.705 3449.467 1662.492 3439.881 C 1661.906 3435.269 1663.412 3432.149 1664.612 3427.883 C 1667.718 3416.871 1666.692 3411.871 1678.09 3404.112 C 1684.983 3403.473 1688.502 3410.978 1692.555 3415.884 Z " fill="rgb(70,70,70)" vector-effect="non-scaling-stroke" stroke-width="1.333" stroke="rgb(70,70,70)" stroke-linejoin="miter" stroke-linecap="butt" stroke-miterlimit="4"/></svg>